<svg width="105" height="105" viewBox="0 0 105 105" fill="none" xmlns="http://www.w3.org/2000/svg">
<rect width="105" height="105" rx="14" fill="white"/>
<path d="M40.96 77.6C40.4533 77.6 39.8133 77.5867 39.04 77.56C38.2933 77.5333 37.5067 77.4933 36.68 77.44C35.8533 77.4133 35.0667 77.3733 34.32 77.32C33.5733 77.2933 32.9467 77.2533 32.44 77.2C32.7067 75.8133 33.08 73.8667 33.56 71.36C34.0667 68.8533 34.6667 66.0133 35.36 62.84C36.0533 59.64 36.7867 56.2933 37.56 52.8C38.3333 49.3067 39.12 45.84 39.92 42.4C40.7467 38.9333 41.5333 35.68 42.28 32.64C43.0267 29.6 43.6933 26.9867 44.28 24.8C45.9067 24.56 47.88 24.32 50.2 24.08C52.5467 23.84 54.9333 23.72 57.36 23.72C58.4 23.72 59.48 23.7467 60.6 23.8C61.72 23.8533 62.7867 23.9467 63.8 24.08C64.3067 26.4267 64.8133 29.2267 65.32 32.48C65.8533 35.7333 66.36 39.52 66.84 43.84C67.3467 48.16 67.84 53.0667 68.32 58.56C68.8267 64.0267 69.32 70.1733 69.8 77C69.1867 77.1067 68.3733 77.2 67.36 77.28C66.3467 77.3867 65.2933 77.4667 64.2 77.52C63.1333 77.5733 62.1467 77.6 61.24 77.6C61.1867 76.8267 61.1333 75.8133 61.08 74.56C61.0267 73.3067 60.96 71.92 60.88 70.4C60.8 68.8533 60.72 67.32 60.64 65.8C60.56 64.2533 60.48 62.8267 60.4 61.52C60.32 60.2133 60.2533 59.1467 60.2 58.32C59.3467 58.3467 58.3067 58.3867 57.08 58.44C55.8533 58.4933 54.56 58.5733 53.2 58.68C51.8667 58.76 50.5733 58.8533 49.32 58.96C48.0933 59.0667 47.0267 59.1733 46.12 59.28C45.2133 59.3867 44.6133 59.4667 44.32 59.52C43.84 61.7867 43.3733 64.08 42.92 66.4C42.4667 68.6933 42.0667 70.8267 41.72 72.8C41.3733 74.7467 41.12 76.3467 40.96 77.6ZM45.4 52.64C46.3867 52.4267 47.7467 52.2267 49.48 52.04C51.24 51.8533 53.0667 51.6933 54.96 51.56C56.88 51.4267 58.5467 51.3333 59.96 51.28C59.9067 50.4533 59.8133 49.1333 59.68 47.32C59.5467 45.5067 59.3867 43.52 59.2 41.36C59.0133 39.2 58.8267 37.16 58.64 35.24C58.48 33.2933 58.3067 31.7867 58.12 30.72C57.5067 30.72 56.6267 30.76 55.48 30.84C54.36 30.8933 53.2667 30.9733 52.2 31.08C51.16 31.16 50.4267 31.2267 50 31.28C49.84 31.9733 49.6 33.0267 49.28 34.44C48.96 35.8267 48.5867 37.4933 48.16 39.44C47.7333 41.36 47.28 43.4533 46.8 45.72C46.3467 47.96 45.88 50.2667 45.4 52.64Z" fill="#181818"/>
</svg>
